<?xml version="1.0" standalone="no"?><!DOCTYPE svg PUBLIC "-//W3C//DTD SVG 1.1//EN" "http://www.w3.org/Graphics/SVG/1.1/DTD/svg11.dtd"><svg t="1624529395781" class="icon" viewBox="0 0 1024 1024" version="1.1" xmlns="http://www.w3.org/2000/svg" p-id="598" xmlns:xlink="http://www.w3.org/1999/xlink" width="200" height="200"><defs><style type="text/css"></style></defs><path d="M512 896.00000001c-211.73 0-384-172.26-384.00000001-384.00000001S300.27 127.99999999 512 127.99999999 896 300.26 896.00000001 512s-172.27 384-384.00000001 384.00000001m0 63.99999999C759.42 960 960 759.42 960 512s-200.58-448-448-448-448 200.58-448 448S264.58 960 512 960z" p-id="599"></path><path d="M363 534.7c0.14 0.14 0.32 0.17 0.45 0.3L544 715.57a32 32 0 0 0 45.26-45.25L430.93 512 589.25 353.68A32 32 0 0 0 544 308.43L363.42 489c-0.13 0.13-0.31 0.16-0.45 0.3a32.23 32.23 0 0 0 0 45.4z" p-id="600"></path></svg>