<?xml version="1.0" standalone="no"?><!DOCTYPE svg PUBLIC "-//W3C//DTD SVG 1.1//EN" "http://www.w3.org/Graphics/SVG/1.1/DTD/svg11.dtd"><svg t="1626979723944" class="icon" viewBox="0 0 1024 1024" version="1.1" xmlns="http://www.w3.org/2000/svg" p-id="4216" xmlns:xlink="http://www.w3.org/1999/xlink" width="200" height="200"><defs><style type="text/css">@font-face { font-family: feedback-iconfont; src: url("//at.alicdn.com/t/font_1031158_1uhr8ri0pk5.eot?#iefix") format("embedded-opentype"), url("//at.alicdn.com/t/font_1031158_1uhr8ri0pk5.woff2") format("woff2"), url("//at.alicdn.com/t/font_1031158_1uhr8ri0pk5.woff") format("woff"), url("//at.alicdn.com/t/font_1031158_1uhr8ri0pk5.ttf") format("truetype"), url("//at.alicdn.com/t/font_1031158_1uhr8ri0pk5.svg#iconfont") format("svg"); }
</style></defs><path d="M980.2 488.5V88.7c0-22.6-18.3-41-41-41H535.7c-13 0-24.6 6.1-32.1 15.5l-438 438c-20.7 25-20.8 61.2-0.4 86.3L440 962.4c25.3 21.4 62.4 21.4 87.7 0.1l26.3-26.3c0.4-0.4 0.9-0.9 1.3-1.4l43.5-43.5L229.5 522c-16-16-16-41.9 0-57.9s41.9-16 57.9 0l369.3 369.3 311.6-311.6c9.2-9.1 13.1-21.5 11.9-33.3z m-308.5 3.3c-77.3 0-140-62.7-140-140s62.7-140 140-140 140 62.7 140 140-62.7 140-140 140z" fill="#242424" p-id="4217"></path></svg>