<?xml version="1.0" standalone="no"?><!DOCTYPE svg PUBLIC "-//W3C//DTD SVG 1.1//EN" "http://www.w3.org/Graphics/SVG/1.1/DTD/svg11.dtd"><svg t="1626974301065" class="icon" viewBox="0 0 1024 1024" version="1.1" xmlns="http://www.w3.org/2000/svg" p-id="2193" xmlns:xlink="http://www.w3.org/1999/xlink" width="200" height="200"><defs><style type="text/css">@font-face { font-family: feedback-iconfont; src: url("//at.alicdn.com/t/font_1031158_1uhr8ri0pk5.eot?#iefix") format("embedded-opentype"), url("//at.alicdn.com/t/font_1031158_1uhr8ri0pk5.woff2") format("woff2"), url("//at.alicdn.com/t/font_1031158_1uhr8ri0pk5.woff") format("woff"), url("//at.alicdn.com/t/font_1031158_1uhr8ri0pk5.ttf") format("truetype"), url("//at.alicdn.com/t/font_1031158_1uhr8ri0pk5.svg#iconfont") format("svg"); }
</style></defs><path d="M975.8 48.3c-25.9-26-60.3-40.3-97-40.4l-265.7-0.3h-0.2c-36.6 0-71 14.2-96.9 40.1L43.9 519.9C18 545.7 3.8 580.2 3.8 616.7s14.3 71 40.1 96.9L308.3 978c26.7 26.7 61.8 40.1 96.9 40.1s70.2-13.4 96.9-40.1l472.4-472.4c25.7-25.7 40-59.9 40.1-96.3l1.1-263.9c0.1-36.6-14.1-71.1-39.9-97.1zM776.5 315.5c-40.1 0-72.7-32.5-72.7-72.7 0-40.1 32.5-72.7 72.7-72.7 40.1 0 72.7 32.5 72.7 72.7 0 40.1-32.6 72.7-72.7 72.7z" fill="#999999" p-id="2194"></path></svg>